<mxfile host="app.diagrams.net" agent="Mozilla/5.0 (Macintosh; Intel Mac OS X 10_15_7) AppleWebKit/537.36 (KHTML, like Gecko) Chrome/141.0.0.0 Safari/537.36" version="28.2.7">
  <diagram name="Page-1" id="b_Na3I1oej1W3SpW28e0">
    <mxGraphModel dx="1665" dy="824" grid="1" gridSize="10" guides="1" tooltips="1" connect="1" arrows="1" fold="1" page="1" pageScale="1" pageWidth="850" pageHeight="1100" math="0" shadow="0">
      <root>
        <mxCell id="0" />
        <mxCell id="1" parent="0" />
        <mxCell id="8wf4B5zJbTg-PlVBdOYW-14" value="" style="whiteSpace=wrap;html=1;fillColor=none;" vertex="1" parent="1">
          <mxGeometry x="180" y="290" width="1060" height="560" as="geometry" />
        </mxCell>
        <mxCell id="8wf4B5zJbTg-PlVBdOYW-10" value="" style="whiteSpace=wrap;html=1;fillColor=none;" vertex="1" parent="1">
          <mxGeometry x="500" y="390" width="700" height="420" as="geometry" />
        </mxCell>
        <mxCell id="8wf4B5zJbTg-PlVBdOYW-25" value="" style="whiteSpace=wrap;html=1;fillColor=none;" vertex="1" parent="1">
          <mxGeometry x="530" y="440" width="640" height="350" as="geometry" />
        </mxCell>
        <mxCell id="8wf4B5zJbTg-PlVBdOYW-45" value="" style="whiteSpace=wrap;html=1;fillColor=none;" vertex="1" parent="1">
          <mxGeometry x="990" y="464.66999999999996" width="144" height="75.33" as="geometry" />
        </mxCell>
        <mxCell id="8wf4B5zJbTg-PlVBdOYW-47" value="" style="whiteSpace=wrap;html=1;fillColor=none;" vertex="1" parent="1">
          <mxGeometry x="990" y="649.34" width="144" height="75.33" as="geometry" />
        </mxCell>
        <mxCell id="8wf4B5zJbTg-PlVBdOYW-46" value="" style="whiteSpace=wrap;html=1;fillColor=none;" vertex="1" parent="1">
          <mxGeometry x="990" y="556.17" width="144" height="75.33" as="geometry" />
        </mxCell>
        <mxCell id="8wf4B5zJbTg-PlVBdOYW-26" value="" style="whiteSpace=wrap;html=1;fillColor=none;" vertex="1" parent="1">
          <mxGeometry x="560" y="464.67" width="180" height="120" as="geometry" />
        </mxCell>
        <mxCell id="8wf4B5zJbTg-PlVBdOYW-4" value="desktop" style="sketch=0;outlineConnect=0;gradientColor=none;fontColor=#545B64;strokeColor=none;fillColor=#879196;dashed=0;verticalLabelPosition=bottom;verticalAlign=top;align=center;html=1;fontSize=12;fontStyle=0;aspect=fixed;shape=mxgraph.aws4.illustration_desktop;pointerEvents=1" vertex="1" parent="1">
          <mxGeometry x="30" y="357.16" width="100" height="91" as="geometry" />
        </mxCell>
        <mxCell id="8wf4B5zJbTg-PlVBdOYW-6" value="" style="sketch=0;points=[[0,0,0],[0.25,0,0],[0.5,0,0],[0.75,0,0],[1,0,0],[0,1,0],[0.25,1,0],[0.5,1,0],[0.75,1,0],[1,1,0],[0,0.25,0],[0,0.5,0],[0,0.75,0],[1,0.25,0],[1,0.5,0],[1,0.75,0]];outlineConnect=0;fontColor=#232F3E;fillColor=#DD344C;strokeColor=#ffffff;dashed=0;verticalLabelPosition=bottom;verticalAlign=top;align=center;html=1;fontSize=12;fontStyle=0;aspect=fixed;shape=mxgraph.aws4.resourceIcon;resIcon=mxgraph.aws4.waf;" vertex="1" parent="1">
          <mxGeometry x="367" y="363.66" width="78" height="78" as="geometry" />
        </mxCell>
        <mxCell id="8wf4B5zJbTg-PlVBdOYW-17" value="" style="edgeStyle=orthogonalEdgeStyle;rounded=0;orthogonalLoop=1;jettySize=auto;html=1;" edge="1" parent="1" source="8wf4B5zJbTg-PlVBdOYW-7" target="8wf4B5zJbTg-PlVBdOYW-6">
          <mxGeometry relative="1" as="geometry" />
        </mxCell>
        <mxCell id="8wf4B5zJbTg-PlVBdOYW-7" value="" style="sketch=0;points=[[0,0,0],[0.25,0,0],[0.5,0,0],[0.75,0,0],[1,0,0],[0,1,0],[0.25,1,0],[0.5,1,0],[0.75,1,0],[1,1,0],[0,0.25,0],[0,0.5,0],[0,0.75,0],[1,0.25,0],[1,0.5,0],[1,0.75,0]];outlineConnect=0;fontColor=#232F3E;fillColor=#8C4FFF;strokeColor=#ffffff;dashed=0;verticalLabelPosition=bottom;verticalAlign=top;align=center;html=1;fontSize=12;fontStyle=0;aspect=fixed;shape=mxgraph.aws4.resourceIcon;resIcon=mxgraph.aws4.cloudfront;" vertex="1" parent="1">
          <mxGeometry x="240" y="363.66" width="78" height="78" as="geometry" />
        </mxCell>
        <mxCell id="8wf4B5zJbTg-PlVBdOYW-9" value="" style="points=[];aspect=fixed;html=1;align=center;shadow=0;dashed=0;fillColor=#FF6A00;strokeColor=none;shape=mxgraph.alibaba_cloud.alb_application_load_balancer_02;" vertex="1" parent="1">
          <mxGeometry x="616.33" y="487.33000000000004" width="67.34" height="67.34" as="geometry" />
        </mxCell>
        <mxCell id="8wf4B5zJbTg-PlVBdOYW-11" value="Virtual Private Cloud (VPC)" style="text;html=1;whiteSpace=wrap;strokeColor=none;fillColor=none;align=left;verticalAlign=middle;rounded=0;" vertex="1" parent="1">
          <mxGeometry x="500" y="363.66" width="160" height="26.34" as="geometry" />
        </mxCell>
        <mxCell id="8wf4B5zJbTg-PlVBdOYW-15" value="AWS Environment" style="text;html=1;whiteSpace=wrap;strokeColor=none;fillColor=none;align=left;verticalAlign=middle;rounded=0;" vertex="1" parent="1">
          <mxGeometry x="180" y="260" width="160" height="30" as="geometry" />
        </mxCell>
        <mxCell id="8wf4B5zJbTg-PlVBdOYW-16" value="" style="edgeStyle=orthogonalEdgeStyle;html=1;endArrow=block;elbow=vertical;startArrow=none;endFill=1;strokeColor=#545B64;rounded=0;entryX=0;entryY=0.5;entryDx=0;entryDy=0;entryPerimeter=0;" edge="1" parent="1" source="8wf4B5zJbTg-PlVBdOYW-4" target="8wf4B5zJbTg-PlVBdOYW-7">
          <mxGeometry width="100" relative="1" as="geometry">
            <mxPoint x="170" y="403" as="sourcePoint" />
            <mxPoint x="250" y="409" as="targetPoint" />
            <Array as="points" />
          </mxGeometry>
        </mxCell>
        <mxCell id="8wf4B5zJbTg-PlVBdOYW-20" value="AWS WAF" style="text;html=1;whiteSpace=wrap;strokeColor=none;fillColor=none;align=left;verticalAlign=middle;rounded=0;" vertex="1" parent="1">
          <mxGeometry x="376" y="343.65999999999997" width="60" height="20" as="geometry" />
        </mxCell>
        <mxCell id="8wf4B5zJbTg-PlVBdOYW-22" value="AWS CloudFront" style="text;html=1;whiteSpace=wrap;strokeColor=none;fillColor=none;align=left;verticalAlign=middle;rounded=0;" vertex="1" parent="1">
          <mxGeometry x="231.5" y="343.65999999999997" width="101" height="20" as="geometry" />
        </mxCell>
        <mxCell id="8wf4B5zJbTg-PlVBdOYW-23" value="AWS ALB" style="text;html=1;whiteSpace=wrap;strokeColor=none;fillColor=none;align=left;verticalAlign=middle;rounded=0;" vertex="1" parent="1">
          <mxGeometry x="623.67" y="554.67" width="60" height="20" as="geometry" />
        </mxCell>
        <mxCell id="8wf4B5zJbTg-PlVBdOYW-24" value="VPC Subnets" style="text;html=1;whiteSpace=wrap;strokeColor=none;fillColor=none;align=left;verticalAlign=middle;rounded=0;" vertex="1" parent="1">
          <mxGeometry x="530" y="406.33000000000004" width="160" height="38.34" as="geometry" />
        </mxCell>
        <mxCell id="8wf4B5zJbTg-PlVBdOYW-28" value="" style="whiteSpace=wrap;html=1;fillColor=none;" vertex="1" parent="1">
          <mxGeometry x="560" y="627.01" width="180" height="120" as="geometry" />
        </mxCell>
        <mxCell id="8wf4B5zJbTg-PlVBdOYW-29" value="Public Subnet" style="text;html=1;whiteSpace=wrap;strokeColor=none;fillColor=none;align=left;verticalAlign=middle;rounded=0;" vertex="1" parent="1">
          <mxGeometry x="560" y="436.33000000000004" width="160" height="38.34" as="geometry" />
        </mxCell>
        <mxCell id="8wf4B5zJbTg-PlVBdOYW-30" value="Private Subnet" style="text;html=1;whiteSpace=wrap;strokeColor=none;fillColor=none;align=left;verticalAlign=middle;rounded=0;" vertex="1" parent="1">
          <mxGeometry x="560" y="600.4199999999998" width="160" height="38.34" as="geometry" />
        </mxCell>
        <mxCell id="8wf4B5zJbTg-PlVBdOYW-31" value="" style="sketch=0;points=[[0,0,0],[0.25,0,0],[0.5,0,0],[0.75,0,0],[1,0,0],[0,1,0],[0.25,1,0],[0.5,1,0],[0.75,1,0],[1,1,0],[0,0.25,0],[0,0.5,0],[0,0.75,0],[1,0.25,0],[1,0.5,0],[1,0.75,0]];outlineConnect=0;fontColor=#232F3E;fillColor=#01A88D;strokeColor=#ffffff;dashed=0;verticalLabelPosition=bottom;verticalAlign=top;align=center;html=1;fontSize=12;fontStyle=0;aspect=fixed;shape=mxgraph.aws4.resourceIcon;resIcon=mxgraph.aws4.forecast;" vertex="1" parent="1">
          <mxGeometry x="611" y="640" width="78" height="78" as="geometry" />
        </mxCell>
        <mxCell id="8wf4B5zJbTg-PlVBdOYW-32" value="AWS Fargate" style="text;html=1;whiteSpace=wrap;strokeColor=none;fillColor=none;align=left;verticalAlign=middle;rounded=0;" vertex="1" parent="1">
          <mxGeometry x="613.67" y="722.67" width="80" height="20" as="geometry" />
        </mxCell>
        <mxCell id="8wf4B5zJbTg-PlVBdOYW-34" value="" style="edgeStyle=orthogonalEdgeStyle;html=1;endArrow=block;elbow=vertical;startArrow=none;endFill=1;strokeColor=#545B64;rounded=0;entryX=0;entryY=0.5;entryDx=0;entryDy=0;exitX=0.5;exitY=1;exitDx=0;exitDy=0;exitPerimeter=0;" edge="1" parent="1" source="8wf4B5zJbTg-PlVBdOYW-6" target="8wf4B5zJbTg-PlVBdOYW-26">
          <mxGeometry width="100" relative="1" as="geometry">
            <mxPoint x="90" y="530" as="sourcePoint" />
            <mxPoint x="283" y="440" as="targetPoint" />
            <Array as="points" />
          </mxGeometry>
        </mxCell>
        <mxCell id="8wf4B5zJbTg-PlVBdOYW-40" value="" style="edgeStyle=orthogonalEdgeStyle;html=1;endArrow=block;elbow=vertical;startArrow=none;endFill=1;strokeColor=#545B64;rounded=0;entryX=0.5;entryY=0;entryDx=0;entryDy=0;exitX=0.5;exitY=1;exitDx=0;exitDy=0;" edge="1" parent="1" source="8wf4B5zJbTg-PlVBdOYW-26" target="8wf4B5zJbTg-PlVBdOYW-28">
          <mxGeometry width="100" relative="1" as="geometry">
            <mxPoint x="150" y="400" as="sourcePoint" />
            <mxPoint x="263" y="400" as="targetPoint" />
            <Array as="points" />
          </mxGeometry>
        </mxCell>
        <mxCell id="8wf4B5zJbTg-PlVBdOYW-48" value="" style="outlineConnect=0;dashed=0;verticalLabelPosition=bottom;verticalAlign=top;align=center;html=1;shape=mxgraph.aws3.cognito;fillColor=#AD688B;gradientColor=none;" vertex="1" parent="1">
          <mxGeometry x="1042" y="655.3399999999999" width="44" height="47.33" as="geometry" />
        </mxCell>
        <mxCell id="8wf4B5zJbTg-PlVBdOYW-49" value="AWS Cognito" style="text;html=1;whiteSpace=wrap;strokeColor=none;fillColor=none;align=left;verticalAlign=middle;rounded=0;" vertex="1" parent="1">
          <mxGeometry x="1024" y="702.67" width="80" height="20" as="geometry" />
        </mxCell>
        <mxCell id="8wf4B5zJbTg-PlVBdOYW-50" value="" style="outlineConnect=0;dashed=0;verticalLabelPosition=bottom;verticalAlign=top;align=center;html=1;shape=mxgraph.aws3.s3;fillColor=#E05243;gradientColor=none;" vertex="1" parent="1">
          <mxGeometry x="1042" y="565.84" width="40" height="43" as="geometry" />
        </mxCell>
        <mxCell id="8wf4B5zJbTg-PlVBdOYW-51" value="AWS S3" style="text;html=1;whiteSpace=wrap;strokeColor=none;fillColor=none;align=left;verticalAlign=middle;rounded=0;" vertex="1" parent="1">
          <mxGeometry x="1038" y="608.84" width="50" height="21.5" as="geometry" />
        </mxCell>
        <mxCell id="8wf4B5zJbTg-PlVBdOYW-52" value="" style="sketch=0;points=[[0,0,0],[0.25,0,0],[0.5,0,0],[0.75,0,0],[1,0,0],[0,1,0],[0.25,1,0],[0.5,1,0],[0.75,1,0],[1,1,0],[0,0.25,0],[0,0.5,0],[0,0.75,0],[1,0.25,0],[1,0.5,0],[1,0.75,0]];outlineConnect=0;fontColor=#232F3E;fillColor=#C925D1;strokeColor=#ffffff;dashed=0;verticalLabelPosition=bottom;verticalAlign=top;align=center;html=1;fontSize=12;fontStyle=0;aspect=fixed;shape=mxgraph.aws4.resourceIcon;resIcon=mxgraph.aws4.rds;" vertex="1" parent="1">
          <mxGeometry x="1042" y="477.33" width="38" height="38" as="geometry" />
        </mxCell>
        <mxCell id="8wf4B5zJbTg-PlVBdOYW-53" value="AWS RDS" style="text;html=1;whiteSpace=wrap;strokeColor=none;fillColor=none;align=left;verticalAlign=middle;rounded=0;" vertex="1" parent="1">
          <mxGeometry x="1031" y="515.33" width="60" height="21.5" as="geometry" />
        </mxCell>
        <mxCell id="8wf4B5zJbTg-PlVBdOYW-56" value="" style="edgeStyle=orthogonalEdgeStyle;rounded=0;orthogonalLoop=1;jettySize=auto;html=1;entryX=1;entryY=0.5;entryDx=0;entryDy=0;exitX=1;exitY=0.5;exitDx=0;exitDy=0;" edge="1" parent="1" source="8wf4B5zJbTg-PlVBdOYW-47" target="8wf4B5zJbTg-PlVBdOYW-46">
          <mxGeometry relative="1" as="geometry">
            <mxPoint x="918" y="660" as="sourcePoint" />
            <mxPoint x="1020" y="682" as="targetPoint" />
          </mxGeometry>
        </mxCell>
        <mxCell id="8wf4B5zJbTg-PlVBdOYW-59" value="" style="edgeStyle=orthogonalEdgeStyle;rounded=0;orthogonalLoop=1;jettySize=auto;html=1;exitX=1;exitY=0.5;exitDx=0;exitDy=0;entryX=1;entryY=0.5;entryDx=0;entryDy=0;" edge="1" parent="1" source="8wf4B5zJbTg-PlVBdOYW-47" target="8wf4B5zJbTg-PlVBdOYW-45">
          <mxGeometry relative="1" as="geometry">
            <mxPoint x="1198" y="587" as="sourcePoint" />
            <mxPoint x="1198" y="500" as="targetPoint" />
          </mxGeometry>
        </mxCell>
        <mxCell id="8wf4B5zJbTg-PlVBdOYW-61" value="" style="whiteSpace=wrap;html=1;fillColor=none;" vertex="1" parent="1">
          <mxGeometry x="780" y="464.67" width="180" height="120" as="geometry" />
        </mxCell>
        <mxCell id="8wf4B5zJbTg-PlVBdOYW-62" value="" style="points=[];aspect=fixed;html=1;align=center;shadow=0;dashed=0;fillColor=#FF6A00;strokeColor=none;shape=mxgraph.alibaba_cloud.alb_application_load_balancer_02;" vertex="1" parent="1">
          <mxGeometry x="836.33" y="492.41" width="67.34" height="67.34" as="geometry" />
        </mxCell>
        <mxCell id="8wf4B5zJbTg-PlVBdOYW-63" value="AWS ALB" style="text;html=1;whiteSpace=wrap;strokeColor=none;fillColor=none;align=left;verticalAlign=middle;rounded=0;" vertex="1" parent="1">
          <mxGeometry x="840" y="559.75" width="60" height="20" as="geometry" />
        </mxCell>
        <mxCell id="8wf4B5zJbTg-PlVBdOYW-65" value="Failover" style="text;html=1;whiteSpace=wrap;strokeColor=none;fillColor=none;align=left;verticalAlign=middle;rounded=0;" vertex="1" parent="1">
          <mxGeometry x="780" y="438.99" width="160" height="38.34" as="geometry" />
        </mxCell>
        <mxCell id="8wf4B5zJbTg-PlVBdOYW-66" value="" style="edgeStyle=orthogonalEdgeStyle;html=1;endArrow=block;elbow=vertical;startArrow=block;startFill=1;endFill=1;strokeColor=#545B64;rounded=0;entryX=0;entryY=0.5;entryDx=0;entryDy=0;exitX=1;exitY=0.5;exitDx=0;exitDy=0;" edge="1" parent="1" source="8wf4B5zJbTg-PlVBdOYW-26" target="8wf4B5zJbTg-PlVBdOYW-61">
          <mxGeometry width="100" relative="1" as="geometry">
            <mxPoint x="740" y="517" as="sourcePoint" />
            <mxPoint x="930" y="460" as="targetPoint" />
          </mxGeometry>
        </mxCell>
        <mxCell id="8wf4B5zJbTg-PlVBdOYW-67" value="" style="edgeStyle=orthogonalEdgeStyle;html=1;endArrow=openThin;elbow=vertical;startArrow=none;endFill=0;strokeColor=#545B64;rounded=0;exitX=1;exitY=0.5;exitDx=0;exitDy=0;entryX=0;entryY=0.5;entryDx=0;entryDy=0;" edge="1" parent="1" source="8wf4B5zJbTg-PlVBdOYW-28" target="8wf4B5zJbTg-PlVBdOYW-47">
          <mxGeometry width="100" relative="1" as="geometry">
            <mxPoint x="830" y="460" as="sourcePoint" />
            <mxPoint x="930" y="460" as="targetPoint" />
          </mxGeometry>
        </mxCell>
      </root>
    </mxGraphModel>
  </diagram>
</mxfile>
